<svg xmlns="http://www.w3.org/2000/svg" width="181" height="181" fill="none" viewBox="0 0 181 181">
  <path fill="#fff" fill-rule="evenodd" d="M90.5 28.281l54.854 1.551c9.693.274 17.71 7.632 18.812 17.266a282.298 282.298 0 010 64.183c-1.102 9.634-9.119 16.992-18.812 17.266l-41.657 1.178v15.454h24.51a5.657 5.657 0 010 11.313H52.791a5.656 5.656 0 110-11.313H77.3v-15.454l-41.657-1.178c-9.693-.274-17.71-7.632-18.812-17.266a282.31 282.31 0 010-64.183c1.102-9.634 9.12-16.992 18.812-17.266l54.855-1.55zm0 11.317L35.963 41.14a8.176 8.176 0 00-7.893 7.244 270.997 270.997 0 000 61.612 8.176 8.176 0 007.893 7.243l54.535 1.542 54.536-1.542a8.176 8.176 0 007.892-7.243 271.02 271.02 0 000-61.612 8.176 8.176 0 00-7.892-7.244l-54.536-1.542z" clip-rule="evenodd"/>
</svg>
