<svg xmlns="http://www.w3.org/2000/svg" width="185" height="185" fill="none" viewBox="0 0 185 185">
  <path fill="#fff" fill-rule="evenodd" d="M15.416 38.543a23.127 23.127 0 0123.125-23.126h107.917a23.125 23.125 0 0123.125 23.126v107.922a23.125 23.125 0 01-23.125 23.126H38.541a23.124 23.124 0 01-23.125-23.126V38.543zm23.125-7.709a7.708 7.708 0 00-7.708 7.71v38.543h123.333V38.543a7.708 7.708 0 00-7.708-7.709H38.541zm-7.708 61.67v53.961a7.709 7.709 0 007.708 7.709h107.917a7.705 7.705 0 007.708-7.709v-53.96H30.833zm77.083 7.709a7.71 7.71 0 015.45 2.258l30.833 30.835a7.71 7.71 0 01-10.899 10.9l-25.384-25.384-17.675 17.676-7.709 7.708a7.703 7.703 0 01-10.805-.094 7.706 7.706 0 01-.094-10.806l2.258-2.258-4.517-4.518L51.7 144.206a7.703 7.703 0 01-10.805-.094 7.707 7.707 0 01-.094-10.806l23.125-23.126a7.709 7.709 0 0110.9 0l9.966 9.968 17.675-17.677a7.71 7.71 0 015.45-2.258zM84.791 53.961a7.709 7.709 0 017.708-7.71h38.542a7.71 7.71 0 015.451 13.16 7.71 7.71 0 01-5.451 2.258H92.499a7.708 7.708 0 01-7.708-7.708zM53.958 67.45a13.49 13.49 0 100-26.98 13.49 13.49 0 000 26.98z" clip-rule="evenodd"/>
</svg>
