<svg xmlns="http://www.w3.org/2000/svg" width="174" height="174" fill="none" viewBox="0 0 174 174">
  <path fill="#fff" fill-rule="evenodd" d="M48.938 54.375c0-17.017 13.795-30.813 30.812-30.813 17.017 0 30.812 13.796 30.812 30.813S96.767 85.188 79.75 85.188c-17.017 0-30.813-13.796-30.813-30.813zM79.75 34.437c-11.011 0-19.938 8.927-19.938 19.938S68.74 74.313 79.75 74.313s19.938-8.927 19.938-19.938S90.76 34.437 79.75 34.437zM23.563 123.25c0-15.015 12.172-27.188 27.187-27.188h2.471c1.338 0 2.667.212 3.939.627l6.275 2.05a52.562 52.562 0 0032.63 0l6.275-2.05a12.692 12.692 0 013.939-.626h2.471c15.015 0 27.188 12.172 27.188 27.187v8.615a11.143 11.143 0 01-9.348 10.997 290.679 290.679 0 01-93.68 0 11.143 11.143 0 01-9.347-10.997v-8.615zm27.187-16.312c-9.01 0-16.313 7.303-16.313 16.312v8.615c0 .131.096.243.225.264a279.835 279.835 0 0090.176 0 .268.268 0 00.225-.264v-8.615c0-9.009-7.304-16.312-16.313-16.312h-2.471c-.191 0-.381.03-.563.089l-6.275 2.049a63.437 63.437 0 01-39.382 0l-6.275-2.049a1.82 1.82 0 00-.563-.089H50.75z" clip-rule="evenodd"/>
  <path fill="#fff" d="M141.375 45.313a5.438 5.438 0 015.438 5.437v12.688H159.5a5.438 5.438 0 110 10.874h-12.687V87a5.438 5.438 0 01-10.875 0V74.312H123.25a5.437 5.437 0 010-10.874h12.688V50.75a5.437 5.437 0 015.437-5.438z"/>
</svg>
